<?xml version="1.0" encoding="UTF-8" standalone="no"?><!DOCTYPE svg PUBLIC "-//W3C//DTD SVG 1.1//EN" "http://www.w3.org/Graphics/SVG/1.1/DTD/svg11.dtd"><!-- Generated by graphviz version 2.40.1 (20161225.0304)
 --><!-- Title: G Pages: 1 --><svg xmlns="http://www.w3.org/2000/svg" xmlns:xlink="http://www.w3.org/1999/xlink" width="311pt" height="1287pt" viewBox="0.00 0.00 311.21 1287.20">
<g id="graph0" class="graph" transform="scale(1 1) rotate(0) translate(4 1283.2)">
<title>G</title>
<polygon fill="#ffffff" stroke="transparent" points="-4,4 -4,-1283.2 307.2118,-1283.2 307.2118,4 -4,4"/>
<!-- q0 -->
<g id="node1" class="node">
<title>q0</title>
<ellipse fill="none" stroke="#0000ff" cx="48" cy="-462" rx="27" ry="18"/>
<text text-anchor="middle" x="48" y="-457.8" font-family="Times,serif" font-size="14.00" fill="#000000">q0</text>
</g>
<!-- q1 -->
<g id="node2" class="node">
<title>q1</title>
<ellipse fill="none" stroke="#000000" cx="48" cy="-373.2" rx="27" ry="18"/>
<text text-anchor="middle" x="48" y="-369" font-family="Times,serif" font-size="14.00" fill="#000000">q1</text>
</g>
<!-- q0&#45;&gt;q1 -->
<g id="edge1" class="edge">
<title>q0-&gt;q1</title>
<path fill="none" stroke="#000000" d="M48,-443.6006C48,-431.4949 48,-415.4076 48,-401.6674"/>
<polygon fill="#000000" stroke="#000000" points="51.5001,-401.272 48,-391.272 44.5001,-401.2721 51.5001,-401.272"/>
<text text-anchor="middle" x="65.1059" y="-413.4" font-family="Times,serif" font-size="14.00" fill="#000000">z0/w0</text>
</g>
<!-- q2 -->
<g id="node3" class="node">
<title>q2</title>
<ellipse fill="none" stroke="#000000" cx="48" cy="-284.4" rx="27" ry="18"/>
<text text-anchor="middle" x="48" y="-280.2" font-family="Times,serif" font-size="14.00" fill="#000000">q2</text>
</g>
<!-- q1&#45;&gt;q2 -->
<g id="edge2" class="edge">
<title>q1-&gt;q2</title>
<path fill="none" stroke="#000000" d="M48,-354.8006C48,-342.6949 48,-326.6076 48,-312.8674"/>
<polygon fill="#000000" stroke="#000000" points="51.5001,-312.472 48,-302.472 44.5001,-312.4721 51.5001,-312.472"/>
<text text-anchor="middle" x="65.1059" y="-324.6" font-family="Times,serif" font-size="14.00" fill="#000000">z1/w0</text>
</g>
<!-- q3 -->
<g id="node4" class="node">
<title>q3</title>
<ellipse fill="none" stroke="#000000" cx="48" cy="-195.6" rx="27" ry="18"/>
<text text-anchor="middle" x="48" y="-191.4" font-family="Times,serif" font-size="14.00" fill="#000000">q3</text>
</g>
<!-- q2&#45;&gt;q3 -->
<g id="edge3" class="edge">
<title>q2-&gt;q3</title>
<path fill="none" stroke="#000000" d="M48,-266.0006C48,-253.8949 48,-237.8076 48,-224.0674"/>
<polygon fill="#000000" stroke="#000000" points="51.5001,-223.672 48,-213.672 44.5001,-223.6721 51.5001,-223.672"/>
<text text-anchor="middle" x="65.1059" y="-235.8" font-family="Times,serif" font-size="14.00" fill="#000000">z2/w0</text>
</g>
<!-- q4 -->
<g id="node5" class="node">
<title>q4</title>
<ellipse fill="none" stroke="#000000" cx="27" cy="-106.8" rx="27" ry="18"/>
<text text-anchor="middle" x="27" y="-102.6" font-family="Times,serif" font-size="14.00" fill="#000000">q4</text>
</g>
<!-- q3&#45;&gt;q4 -->
<g id="edge4" class="edge">
<title>q3-&gt;q4</title>
<path fill="none" stroke="#000000" d="M36.4952,-179.1383C33.0065,-173.2476 29.6161,-166.3823 27.7882,-159.6 25.6981,-151.845 24.9463,-143.214 24.8615,-135.215"/>
<polygon fill="#000000" stroke="#000000" points="28.3612,-135.2635 25.0779,-125.1903 21.3628,-135.1124 28.3612,-135.2635"/>
<text text-anchor="middle" x="45.1059" y="-147" font-family="Times,serif" font-size="14.00" fill="#000000">z3/w0</text>
</g>
<!-- q10 -->
<g id="node6" class="node">
<title>q10</title>
<ellipse fill="none" stroke="#000000" cx="120" cy="-106.8" rx="27" ry="18"/>
<text text-anchor="middle" x="120" y="-102.6" font-family="Times,serif" font-size="14.00" fill="#000000">q10</text>
</g>
<!-- q3&#45;&gt;q10 -->
<g id="edge5" class="edge">
<title>q3-&gt;q10</title>
<path fill="none" stroke="#000000" d="M60.683,-179.3281C68.9059,-168.8399 79.8914,-154.9426 89.7882,-142.8 93.1179,-138.7147 96.6908,-134.399 100.1721,-130.2294"/>
<polygon fill="#000000" stroke="#000000" points="102.9194,-132.4003 106.6659,-122.4899 97.557,-127.9009 102.9194,-132.4003"/>
<text text-anchor="middle" x="107.1059" y="-147" font-family="Times,serif" font-size="14.00" fill="#000000">z9/w0</text>
</g>
<!-- q5 -->
<g id="node7" class="node">
<title>q5</title>
<ellipse fill="none" stroke="#000000" cx="27" cy="-18" rx="27" ry="18"/>
<text text-anchor="middle" x="27" y="-13.8" font-family="Times,serif" font-size="14.00" fill="#000000">q5</text>
</g>
<!-- q4&#45;&gt;q5 -->
<g id="edge6" class="edge">
<title>q4-&gt;q5</title>
<path fill="none" stroke="#000000" d="M27,-88.4006C27,-76.2949 27,-60.2076 27,-46.4674"/>
<polygon fill="#000000" stroke="#000000" points="30.5001,-46.072 27,-36.072 23.5001,-46.0721 30.5001,-46.072"/>
<text text-anchor="middle" x="44.1059" y="-58.2" font-family="Times,serif" font-size="14.00" fill="#000000">z4/w0</text>
</g>
<!-- q6 -->
<g id="node8" class="node">
<title>q6</title>
<ellipse fill="none" stroke="#000000" cx="165" cy="-462" rx="27" ry="18"/>
<text text-anchor="middle" x="165" y="-457.8" font-family="Times,serif" font-size="14.00" fill="#000000">q6</text>
</g>
<!-- q7 -->
<g id="node9" class="node">
<title>q7</title>
<ellipse fill="none" stroke="#000000" cx="141" cy="-373.2" rx="27" ry="18"/>
<text text-anchor="middle" x="141" y="-369" font-family="Times,serif" font-size="14.00" fill="#000000">q7</text>
</g>
<!-- q6&#45;&gt;q7 -->
<g id="edge7" class="edge">
<title>q6-&gt;q7</title>
<path fill="none" stroke="#000000" d="M152.0458,-446.1173C147.9548,-440.1681 143.9418,-433.1179 141.7882,-426 139.4253,-418.1904 138.6101,-409.4292 138.552,-401.3221"/>
<polygon fill="#000000" stroke="#000000" points="142.0548,-401.2732 138.8453,-391.1762 135.0577,-401.0708 142.0548,-401.2732"/>
<text text-anchor="middle" x="158.1059" y="-413.4" font-family="Times,serif" font-size="14.00" fill="#000000">z5/w0</text>
</g>
<!-- q21 -->
<g id="node10" class="node">
<title>q21</title>
<ellipse fill="none" stroke="#000000" cx="237" cy="-373.2" rx="27" ry="18"/>
<text text-anchor="middle" x="237" y="-369" font-family="Times,serif" font-size="14.00" fill="#000000">q21</text>
</g>
<!-- q6&#45;&gt;q21 -->
<g id="edge8" class="edge">
<title>q6-&gt;q21</title>
<path fill="none" stroke="#000000" d="M175.5977,-445.3124C182.6101,-434.6584 192.2422,-420.7325 201.7882,-409.2 205.6452,-404.5404 209.9893,-399.7699 214.2755,-395.2889"/>
<polygon fill="#000000" stroke="#000000" points="216.8324,-397.6804 221.3381,-388.0914 211.836,-392.7777 216.8324,-397.6804"/>
<text text-anchor="middle" x="221.6059" y="-413.4" font-family="Times,serif" font-size="14.00" fill="#000000">z23/w0</text>
</g>
<!-- q8 -->
<g id="node11" class="node">
<title>q8</title>
<ellipse fill="none" stroke="#000000" cx="141" cy="-284.4" rx="27" ry="18"/>
<text text-anchor="middle" x="141" y="-280.2" font-family="Times,serif" font-size="14.00" fill="#000000">q8</text>
</g>
<!-- q7&#45;&gt;q8 -->
<g id="edge9" class="edge">
<title>q7-&gt;q8</title>
<path fill="none" stroke="#000000" d="M141,-354.8006C141,-342.6949 141,-326.6076 141,-312.8674"/>
<polygon fill="#000000" stroke="#000000" points="144.5001,-312.472 141,-302.472 137.5001,-312.4721 144.5001,-312.472"/>
<text text-anchor="middle" x="158.1059" y="-324.6" font-family="Times,serif" font-size="14.00" fill="#000000">z6/w0</text>
</g>
<!-- q22 -->
<g id="node23" class="node">
<title>q22</title>
<ellipse fill="none" stroke="#000000" cx="237" cy="-284.4" rx="27" ry="18"/>
<text text-anchor="middle" x="237" y="-280.2" font-family="Times,serif" font-size="14.00" fill="#000000">q22</text>
</g>
<!-- q21&#45;&gt;q22 -->
<g id="edge22" class="edge">
<title>q21-&gt;q22</title>
<path fill="none" stroke="#000000" d="M237,-354.8006C237,-342.6949 237,-326.6076 237,-312.8674"/>
<polygon fill="#000000" stroke="#000000" points="240.5001,-312.472 237,-302.472 233.5001,-312.4721 240.5001,-312.472"/>
<text text-anchor="middle" x="257.6059" y="-324.6" font-family="Times,serif" font-size="14.00" fill="#000000">z20/w0</text>
</g>
<!-- q9 -->
<g id="node12" class="node">
<title>q9</title>
<ellipse fill="none" stroke="#000000" cx="141" cy="-195.6" rx="27" ry="18"/>
<text text-anchor="middle" x="141" y="-191.4" font-family="Times,serif" font-size="14.00" fill="#000000">q9</text>
</g>
<!-- q8&#45;&gt;q9 -->
<g id="edge10" class="edge">
<title>q8-&gt;q9</title>
<path fill="none" stroke="#000000" d="M141,-266.0006C141,-253.8949 141,-237.8076 141,-224.0674"/>
<polygon fill="#000000" stroke="#000000" points="144.5001,-223.672 141,-213.672 137.5001,-223.6721 144.5001,-223.672"/>
<text text-anchor="middle" x="158.1059" y="-235.8" font-family="Times,serif" font-size="14.00" fill="#000000">z7/w0</text>
</g>
<!-- q9&#45;&gt;q10 -->
<g id="edge11" class="edge">
<title>q9-&gt;q10</title>
<path fill="none" stroke="#000000" d="M136.7503,-177.63C133.847,-165.353 129.9412,-148.8372 126.6316,-134.8421"/>
<polygon fill="#000000" stroke="#000000" points="129.9509,-133.6693 124.2433,-124.7433 123.1388,-135.2804 129.9509,-133.6693"/>
<text text-anchor="middle" x="149.1059" y="-147" font-family="Times,serif" font-size="14.00" fill="#000000">z8/w0</text>
</g>
<!-- q11 -->
<g id="node13" class="node">
<title>q11</title>
<ellipse fill="none" stroke="#000000" cx="262" cy="-1261.2" rx="27" ry="18"/>
<text text-anchor="middle" x="262" y="-1257" font-family="Times,serif" font-size="14.00" fill="#000000">q11</text>
</g>
<!-- q12 -->
<g id="node14" class="node">
<title>q12</title>
<ellipse fill="none" stroke="#000000" cx="262" cy="-1172.4" rx="27" ry="18"/>
<text text-anchor="middle" x="262" y="-1168.2" font-family="Times,serif" font-size="14.00" fill="#000000">q12</text>
</g>
<!-- q11&#45;&gt;q12 -->
<g id="edge12" class="edge">
<title>q11-&gt;q12</title>
<path fill="none" stroke="#000000" d="M262,-1242.8006C262,-1230.6949 262,-1214.6076 262,-1200.8674"/>
<polygon fill="#000000" stroke="#000000" points="265.5001,-1200.472 262,-1190.472 258.5001,-1200.4721 265.5001,-1200.472"/>
<text text-anchor="middle" x="282.6059" y="-1212.6" font-family="Times,serif" font-size="14.00" fill="#000000">z10/w0</text>
</g>
<!-- q13 -->
<g id="node15" class="node">
<title>q13</title>
<ellipse fill="none" stroke="#000000" cx="262" cy="-1083.6" rx="27" ry="18"/>
<text text-anchor="middle" x="262" y="-1079.4" font-family="Times,serif" font-size="14.00" fill="#000000">q13</text>
</g>
<!-- q12&#45;&gt;q13 -->
<g id="edge13" class="edge">
<title>q12-&gt;q13</title>
<path fill="none" stroke="#000000" d="M262,-1154.0006C262,-1141.8949 262,-1125.8076 262,-1112.0674"/>
<polygon fill="#000000" stroke="#000000" points="265.5001,-1111.672 262,-1101.672 258.5001,-1111.6721 265.5001,-1111.672"/>
<text text-anchor="middle" x="282.6059" y="-1123.8" font-family="Times,serif" font-size="14.00" fill="#000000">z11/w0</text>
</g>
<!-- q14 -->
<g id="node16" class="node">
<title>q14</title>
<ellipse fill="none" stroke="#000000" cx="262" cy="-994.8" rx="27" ry="18"/>
<text text-anchor="middle" x="262" y="-990.6" font-family="Times,serif" font-size="14.00" fill="#000000">q14</text>
</g>
<!-- q13&#45;&gt;q14 -->
<g id="edge14" class="edge">
<title>q13-&gt;q14</title>
<path fill="none" stroke="#000000" d="M262,-1065.2006C262,-1053.0949 262,-1037.0076 262,-1023.2674"/>
<polygon fill="#000000" stroke="#000000" points="265.5001,-1022.872 262,-1012.872 258.5001,-1022.8721 265.5001,-1022.872"/>
<text text-anchor="middle" x="282.6059" y="-1035" font-family="Times,serif" font-size="14.00" fill="#000000">z12/w0</text>
</g>
<!-- q15 -->
<g id="node17" class="node">
<title>q15</title>
<ellipse fill="none" stroke="#000000" cx="262" cy="-906" rx="27" ry="18"/>
<text text-anchor="middle" x="262" y="-901.8" font-family="Times,serif" font-size="14.00" fill="#000000">q15</text>
</g>
<!-- q14&#45;&gt;q15 -->
<g id="edge15" class="edge">
<title>q14-&gt;q15</title>
<path fill="none" stroke="#000000" d="M262,-976.4006C262,-964.2949 262,-948.2076 262,-934.4674"/>
<polygon fill="#000000" stroke="#000000" points="265.5001,-934.072 262,-924.072 258.5001,-934.0721 265.5001,-934.072"/>
<text text-anchor="middle" x="282.6059" y="-946.2" font-family="Times,serif" font-size="14.00" fill="#000000">z13/w0</text>
</g>
<!-- q16 -->
<g id="node18" class="node">
<title>q16</title>
<ellipse fill="none" stroke="#000000" cx="262" cy="-817.2" rx="27" ry="18"/>
<text text-anchor="middle" x="262" y="-813" font-family="Times,serif" font-size="14.00" fill="#000000">q16</text>
</g>
<!-- q15&#45;&gt;q16 -->
<g id="edge16" class="edge">
<title>q15-&gt;q16</title>
<path fill="none" stroke="#000000" d="M262,-887.6006C262,-875.4949 262,-859.4076 262,-845.6674"/>
<polygon fill="#000000" stroke="#000000" points="265.5001,-845.272 262,-835.272 258.5001,-845.2721 265.5001,-845.272"/>
<text text-anchor="middle" x="282.6059" y="-857.4" font-family="Times,serif" font-size="14.00" fill="#000000">z14/w0</text>
</g>
<!-- q17 -->
<g id="node19" class="node">
<title>q17</title>
<ellipse fill="none" stroke="#000000" cx="262" cy="-728.4" rx="27" ry="18"/>
<text text-anchor="middle" x="262" y="-724.2" font-family="Times,serif" font-size="14.00" fill="#000000">q17</text>
</g>
<!-- q16&#45;&gt;q17 -->
<g id="edge17" class="edge">
<title>q16-&gt;q17</title>
<path fill="none" stroke="#000000" d="M262,-798.8006C262,-786.6949 262,-770.6076 262,-756.8674"/>
<polygon fill="#000000" stroke="#000000" points="265.5001,-756.472 262,-746.472 258.5001,-756.4721 265.5001,-756.472"/>
<text text-anchor="middle" x="282.6059" y="-768.6" font-family="Times,serif" font-size="14.00" fill="#000000">z15/w0</text>
</g>
<!-- q18 -->
<g id="node20" class="node">
<title>q18</title>
<ellipse fill="none" stroke="#000000" cx="262" cy="-639.6" rx="27" ry="18"/>
<text text-anchor="middle" x="262" y="-635.4" font-family="Times,serif" font-size="14.00" fill="#000000">q18</text>
</g>
<!-- q17&#45;&gt;q18 -->
<g id="edge18" class="edge">
<title>q17-&gt;q18</title>
<path fill="none" stroke="#000000" d="M262,-710.0006C262,-697.8949 262,-681.8076 262,-668.0674"/>
<polygon fill="#000000" stroke="#000000" points="265.5001,-667.672 262,-657.672 258.5001,-667.6721 265.5001,-667.672"/>
<text text-anchor="middle" x="282.6059" y="-679.8" font-family="Times,serif" font-size="14.00" fill="#000000">z16/w0</text>
</g>
<!-- q19 -->
<g id="node21" class="node">
<title>q19</title>
<ellipse fill="none" stroke="#000000" cx="262" cy="-550.8" rx="27" ry="18"/>
<text text-anchor="middle" x="262" y="-546.6" font-family="Times,serif" font-size="14.00" fill="#000000">q19</text>
</g>
<!-- q18&#45;&gt;q19 -->
<g id="edge19" class="edge">
<title>q18-&gt;q19</title>
<path fill="none" stroke="#000000" d="M262,-621.2006C262,-609.0949 262,-593.0076 262,-579.2674"/>
<polygon fill="#000000" stroke="#000000" points="265.5001,-578.872 262,-568.872 258.5001,-578.8721 265.5001,-578.872"/>
<text text-anchor="middle" x="282.6059" y="-591" font-family="Times,serif" font-size="14.00" fill="#000000">z17/w0</text>
</g>
<!-- q20 -->
<g id="node22" class="node">
<title>q20</title>
<ellipse fill="none" stroke="#000000" cx="262" cy="-462" rx="27" ry="18"/>
<text text-anchor="middle" x="262" y="-457.8" font-family="Times,serif" font-size="14.00" fill="#000000">q20</text>
</g>
<!-- q19&#45;&gt;q20 -->
<g id="edge20" class="edge">
<title>q19-&gt;q20</title>
<path fill="none" stroke="#000000" d="M262,-532.4006C262,-520.2949 262,-504.2076 262,-490.4674"/>
<polygon fill="#000000" stroke="#000000" points="265.5001,-490.072 262,-480.072 258.5001,-490.0721 265.5001,-490.072"/>
<text text-anchor="middle" x="282.6059" y="-502.2" font-family="Times,serif" font-size="14.00" fill="#000000">z18/w0</text>
</g>
<!-- q20&#45;&gt;q21 -->
<g id="edge21" class="edge">
<title>q20-&gt;q21</title>
<path fill="none" stroke="#000000" d="M256.9409,-444.03C253.4506,-431.6327 248.7435,-414.913 244.7791,-400.8312"/>
<polygon fill="#000000" stroke="#000000" points="248.1307,-399.8206 242.0516,-391.1433 241.3926,-401.7176 248.1307,-399.8206"/>
<text text-anchor="middle" x="271.6059" y="-413.4" font-family="Times,serif" font-size="14.00" fill="#000000">z19/w0</text>
</g>
<!-- q23 -->
<g id="node24" class="node">
<title>q23</title>
<ellipse fill="none" stroke="#000000" cx="237" cy="-195.6" rx="27" ry="18"/>
<text text-anchor="middle" x="237" y="-191.4" font-family="Times,serif" font-size="14.00" fill="#000000">q23</text>
</g>
<!-- q22&#45;&gt;q23 -->
<g id="edge23" class="edge">
<title>q22-&gt;q23</title>
<path fill="none" stroke="#000000" d="M237,-266.0006C237,-253.8949 237,-237.8076 237,-224.0674"/>
<polygon fill="#000000" stroke="#000000" points="240.5001,-223.672 237,-213.672 233.5001,-223.6721 240.5001,-223.672"/>
<text text-anchor="middle" x="257.6059" y="-235.8" font-family="Times,serif" font-size="14.00" fill="#000000">z21/w0</text>
</g>
<!-- q24 -->
<g id="node25" class="node">
<title>q24</title>
<ellipse fill="none" stroke="#000000" cx="237" cy="-106.8" rx="27" ry="18"/>
<text text-anchor="middle" x="237" y="-102.6" font-family="Times,serif" font-size="14.00" fill="#000000">q24</text>
</g>
<!-- q23&#45;&gt;q24 -->
<g id="edge24" class="edge">
<title>q23-&gt;q24</title>
<path fill="none" stroke="#000000" d="M237,-177.2006C237,-165.0949 237,-149.0076 237,-135.2674"/>
<polygon fill="#000000" stroke="#000000" points="240.5001,-134.872 237,-124.872 233.5001,-134.8721 240.5001,-134.872"/>
<text text-anchor="middle" x="257.6059" y="-147" font-family="Times,serif" font-size="14.00" fill="#000000">z22/w0</text>
</g>
</g>
</svg>