<?xml version="1.0" encoding="UTF-8" standalone="no"?><!DOCTYPE svg PUBLIC "-//W3C//DTD SVG 1.1//EN" "http://www.w3.org/Graphics/SVG/1.1/DTD/svg11.dtd"><!-- Generated by graphviz version 2.40.1 (20161225.0304)
 --><!-- Title: G Pages: 1 --><svg xmlns="http://www.w3.org/2000/svg" xmlns:xlink="http://www.w3.org/1999/xlink" width="618pt" height="1642pt" viewBox="0.00 0.00 618.21 1642.40">
<g id="graph0" class="graph" transform="scale(1 1) rotate(0) translate(4 1638.4)">
<title>G</title>
<polygon fill="#ffffff" stroke="transparent" points="-4,4 -4,-1638.4 614.2118,-1638.4 614.2118,4 -4,4"/>
<!-- q0 -->
<g id="node1" class="node">
<title>q0</title>
<ellipse fill="none" stroke="#0000ff" cx="27" cy="-1616.4" rx="27" ry="18"/>
<text text-anchor="middle" x="27" y="-1612.2" font-family="Times,serif" font-size="14.00" fill="#000000">q0</text>
</g>
<!-- q1 -->
<g id="node2" class="node">
<title>q1</title>
<ellipse fill="none" stroke="#000000" cx="27" cy="-1527.6" rx="27" ry="18"/>
<text text-anchor="middle" x="27" y="-1523.4" font-family="Times,serif" font-size="14.00" fill="#000000">q1</text>
</g>
<!-- q0&#45;&gt;q1 -->
<g id="edge1" class="edge">
<title>q0-&gt;q1</title>
<path fill="none" stroke="#000000" d="M27,-1598.0006C27,-1585.8949 27,-1569.8076 27,-1556.0674"/>
<polygon fill="#000000" stroke="#000000" points="30.5001,-1555.672 27,-1545.672 23.5001,-1555.6721 30.5001,-1555.672"/>
<text text-anchor="middle" x="44.1059" y="-1567.8" font-family="Times,serif" font-size="14.00" fill="#000000">z0/w0</text>
</g>
<!-- q2 -->
<g id="node3" class="node">
<title>q2</title>
<ellipse fill="none" stroke="#000000" cx="82" cy="-1438.8" rx="27" ry="18"/>
<text text-anchor="middle" x="82" y="-1434.6" font-family="Times,serif" font-size="14.00" fill="#000000">q2</text>
</g>
<!-- q1&#45;&gt;q2 -->
<g id="edge2" class="edge">
<title>q1-&gt;q2</title>
<path fill="none" stroke="#000000" d="M37.3451,-1510.8974C45.4366,-1497.8333 56.8273,-1479.4425 66.0789,-1464.5053"/>
<polygon fill="#000000" stroke="#000000" points="69.2242,-1466.074 71.5143,-1455.7296 63.2732,-1462.3881 69.2242,-1466.074"/>
<text text-anchor="middle" x="77.1059" y="-1479" font-family="Times,serif" font-size="14.00" fill="#000000">z1/w0</text>
</g>
<!-- q9 -->
<g id="node4" class="node">
<title>q9</title>
<ellipse fill="none" stroke="#000000" cx="66" cy="-1083.6" rx="27" ry="18"/>
<text text-anchor="middle" x="66" y="-1079.4" font-family="Times,serif" font-size="14.00" fill="#000000">q9</text>
</g>
<!-- q1&#45;&gt;q9 -->
<g id="edge3" class="edge">
<title>q1-&gt;q9</title>
<path fill="none" stroke="#000000" d="M21.8494,-1509.7421C17.1721,-1491.9303 11,-1463.7072 11,-1438.8 11,-1438.8 11,-1438.8 11,-1172.4 11,-1146.8421 27.67,-1122.5109 42.6551,-1105.802"/>
<polygon fill="#000000" stroke="#000000" points="45.475,-1107.9136 49.7957,-1098.2398 40.3854,-1103.1078 45.475,-1107.9136"/>
<text text-anchor="middle" x="31.6059" y="-1301.4" font-family="Times,serif" font-size="14.00" fill="#000000">z11/w0</text>
</g>
<!-- q3 -->
<g id="node5" class="node">
<title>q3</title>
<ellipse fill="none" stroke="#000000" cx="82" cy="-1261.2" rx="27" ry="18"/>
<text text-anchor="middle" x="82" y="-1257" font-family="Times,serif" font-size="14.00" fill="#000000">q3</text>
</g>
<!-- q2&#45;&gt;q3 -->
<g id="edge4" class="edge">
<title>q2-&gt;q3</title>
<path fill="none" stroke="#000000" d="M82,-1420.7934C82,-1389.812 82,-1326.206 82,-1289.3346"/>
<polygon fill="#000000" stroke="#000000" points="85.5001,-1289.2542 82,-1279.2543 78.5001,-1289.2543 85.5001,-1289.2542"/>
<text text-anchor="middle" x="99.1059" y="-1345.8" font-family="Times,serif" font-size="14.00" fill="#000000">z2/w0</text>
</g>
<!-- q6 -->
<g id="node6" class="node">
<title>q6</title>
<ellipse fill="none" stroke="#000000" cx="220" cy="-1350" rx="27" ry="18"/>
<text text-anchor="middle" x="220" y="-1345.8" font-family="Times,serif" font-size="14.00" fill="#000000">q6</text>
</g>
<!-- q2&#45;&gt;q6 -->
<g id="edge5" class="edge">
<title>q2-&gt;q6</title>
<path fill="none" stroke="#000000" d="M101.4793,-1426.2655C124.9756,-1411.1461 164.6641,-1385.6074 191.5774,-1368.2893"/>
<polygon fill="#000000" stroke="#000000" points="193.6574,-1371.1129 200.1729,-1362.7583 189.8695,-1365.2263 193.6574,-1371.1129"/>
<text text-anchor="middle" x="184.6059" y="-1390.2" font-family="Times,serif" font-size="14.00" fill="#000000">z10/w0</text>
</g>
<!-- q4 -->
<g id="node7" class="node">
<title>q4</title>
<ellipse fill="none" stroke="#000000" cx="66" cy="-1172.4" rx="27" ry="18"/>
<text text-anchor="middle" x="66" y="-1168.2" font-family="Times,serif" font-size="14.00" fill="#000000">q4</text>
</g>
<!-- q3&#45;&gt;q4 -->
<g id="edge6" class="edge">
<title>q3-&gt;q4</title>
<path fill="none" stroke="#000000" d="M62.8682,-1247.9775C55.7923,-1241.9417 48.5774,-1234.1379 44.7882,-1225.2 40.8962,-1216.0196 43.371,-1205.8702 47.7969,-1196.9431"/>
<polygon fill="#000000" stroke="#000000" points="50.8985,-1198.5727 52.9304,-1188.1746 44.8576,-1195.0361 50.8985,-1198.5727"/>
<text text-anchor="middle" x="62.1059" y="-1212.6" font-family="Times,serif" font-size="14.00" fill="#000000">z3/w0</text>
</g>
<!-- q8 -->
<g id="node8" class="node">
<title>q8</title>
<ellipse fill="none" stroke="#000000" cx="187" cy="-1172.4" rx="27" ry="18"/>
<text text-anchor="middle" x="187" y="-1168.2" font-family="Times,serif" font-size="14.00" fill="#000000">q8</text>
</g>
<!-- q3&#45;&gt;q8 -->
<g id="edge7" class="edge">
<title>q3-&gt;q8</title>
<path fill="none" stroke="#000000" d="M98.8701,-1246.9327C116.0149,-1232.4331 142.7586,-1209.8156 162.2912,-1193.2966"/>
<polygon fill="#000000" stroke="#000000" points="164.7964,-1195.7618 170.1718,-1186.6318 160.2761,-1190.4169 164.7964,-1195.7618"/>
<text text-anchor="middle" x="161.1059" y="-1212.6" font-family="Times,serif" font-size="14.00" fill="#000000">z9/w0</text>
</g>
<!-- q7 -->
<g id="node12" class="node">
<title>q7</title>
<ellipse fill="none" stroke="#000000" cx="281" cy="-1261.2" rx="27" ry="18"/>
<text text-anchor="middle" x="281" y="-1257" font-family="Times,serif" font-size="14.00" fill="#000000">q7</text>
</g>
<!-- q6&#45;&gt;q7 -->
<g id="edge12" class="edge">
<title>q6-&gt;q7</title>
<path fill="none" stroke="#000000" d="M231.4736,-1333.2974C240.5902,-1320.026 253.4829,-1301.2577 263.8286,-1286.1971"/>
<polygon fill="#000000" stroke="#000000" points="266.8005,-1288.0521 269.5778,-1277.8277 261.0307,-1284.0885 266.8005,-1288.0521"/>
<text text-anchor="middle" x="273.1059" y="-1301.4" font-family="Times,serif" font-size="14.00" fill="#000000">z5/w0</text>
</g>
<!-- q14 -->
<g id="node13" class="node">
<title>q14</title>
<ellipse fill="none" stroke="#000000" cx="444" cy="-906" rx="27" ry="18"/>
<text text-anchor="middle" x="444" y="-901.8" font-family="Times,serif" font-size="14.00" fill="#000000">q14</text>
</g>
<!-- q6&#45;&gt;q14 -->
<g id="edge13" class="edge">
<title>q6-&gt;q14</title>
<path fill="none" stroke="#000000" d="M246.134,-1345.3703C305.2228,-1334.1607 444,-1303.347 444,-1261.2 444,-1261.2 444,-1261.2 444,-994.8 444,-974.5006 444,-951.591 444,-934.1264"/>
<polygon fill="#000000" stroke="#000000" points="447.5001,-934.0279 444,-924.0279 440.5001,-934.0279 447.5001,-934.0279"/>
<text text-anchor="middle" x="464.6059" y="-1123.8" font-family="Times,serif" font-size="14.00" fill="#000000">z28/w0</text>
</g>
<!-- q21 -->
<g id="node14" class="node">
<title>q21</title>
<ellipse fill="none" stroke="#000000" cx="297" cy="-284.4" rx="27" ry="18"/>
<text text-anchor="middle" x="297" y="-280.2" font-family="Times,serif" font-size="14.00" fill="#000000">q21</text>
</g>
<!-- q6&#45;&gt;q21 -->
<g id="edge14" class="edge">
<title>q6-&gt;q21</title>
<path fill="none" stroke="#000000" d="M207.3368,-1333.7283C203.0518,-1327.7424 198.4766,-1320.7686 195,-1314 155.1229,-1236.3624 132,-1215.2799 132,-1128 132,-1128 132,-1128 132,-373.2 132,-315.465 211.3032,-295.1025 259.9523,-288.0429"/>
<polygon fill="#000000" stroke="#000000" points="260.6696,-291.4785 270.1227,-286.6942 259.7493,-284.5392 260.6696,-291.4785"/>
<text text-anchor="middle" x="152.6059" y="-813" font-family="Times,serif" font-size="14.00" fill="#000000">z29/w0</text>
</g>
<!-- q22 -->
<g id="node15" class="node">
<title>q22</title>
<ellipse fill="none" stroke="#000000" cx="258" cy="-195.6" rx="27" ry="18"/>
<text text-anchor="middle" x="258" y="-191.4" font-family="Times,serif" font-size="14.00" fill="#000000">q22</text>
</g>
<!-- q6&#45;&gt;q22 -->
<g id="edge15" class="edge">
<title>q6-&gt;q22</title>
<path fill="none" stroke="#000000" d="M219.1584,-1331.5791C218.1982,-1304.4738 217.4107,-1252.3056 223,-1208.4 227.6368,-1171.9764 242,-1164.7176 242,-1128 242,-1128 242,-1128 242,-284.4 242,-263.7737 246.2328,-240.8735 250.3441,-223.4951"/>
<polygon fill="#000000" stroke="#000000" points="253.8235,-224.0079 252.8494,-213.4579 247.0318,-222.3126 253.8235,-224.0079"/>
<text text-anchor="middle" x="262.6059" y="-768.6" font-family="Times,serif" font-size="14.00" fill="#000000">z30/w0</text>
</g>
<!-- q4&#45;&gt;q9 -->
<g id="edge8" class="edge">
<title>q4-&gt;q9</title>
<path fill="none" stroke="#000000" d="M66,-1154.0006C66,-1141.8949 66,-1125.8076 66,-1112.0674"/>
<polygon fill="#000000" stroke="#000000" points="69.5001,-1111.672 66,-1101.672 62.5001,-1111.6721 69.5001,-1111.672"/>
<text text-anchor="middle" x="83.1059" y="-1123.8" font-family="Times,serif" font-size="14.00" fill="#000000">z8/w0</text>
</g>
<!-- q8&#45;&gt;q9 -->
<g id="edge19" class="edge">
<title>q8-&gt;q9</title>
<path fill="none" stroke="#000000" d="M168.6227,-1158.9132C148.4565,-1144.1135 115.8945,-1120.2168 92.8643,-1103.3153"/>
<polygon fill="#000000" stroke="#000000" points="94.683,-1100.3086 84.5502,-1097.2137 90.5414,-1105.952 94.683,-1100.3086"/>
<text text-anchor="middle" x="155.1059" y="-1123.8" font-family="Times,serif" font-size="14.00" fill="#000000">z7/w0</text>
</g>
<!-- q5 -->
<g id="node9" class="node">
<title>q5</title>
<ellipse fill="none" stroke="#000000" cx="500" cy="-1438.8" rx="27" ry="18"/>
<text text-anchor="middle" x="500" y="-1434.6" font-family="Times,serif" font-size="14.00" fill="#000000">q5</text>
</g>
<!-- q5&#45;&gt;q6 -->
<g id="edge9" class="edge">
<title>q5-&gt;q6</title>
<path fill="none" stroke="#000000" d="M475.1519,-1430.9196C424.9004,-1414.9827 311.1412,-1378.9048 254.0393,-1360.7953"/>
<polygon fill="#000000" stroke="#000000" points="254.9829,-1357.4228 244.3927,-1357.736 252.8667,-1364.0953 254.9829,-1357.4228"/>
<text text-anchor="middle" x="402.1059" y="-1390.2" font-family="Times,serif" font-size="14.00" fill="#000000">z4/w0</text>
</g>
<!-- q12 -->
<g id="node10" class="node">
<title>q12</title>
<ellipse fill="none" stroke="#000000" cx="499" cy="-1083.6" rx="27" ry="18"/>
<text text-anchor="middle" x="499" y="-1079.4" font-family="Times,serif" font-size="14.00" fill="#000000">q12</text>
</g>
<!-- q5&#45;&gt;q12 -->
<g id="edge10" class="edge">
<title>q5-&gt;q12</title>
<path fill="none" stroke="#000000" d="M500,-1420.7721C500,-1402.8311 500,-1374.5125 500,-1350 500,-1350 500,-1350 500,-1172.4 500,-1152.0993 499.7355,-1129.1897 499.4785,-1111.7255"/>
<polygon fill="#000000" stroke="#000000" points="502.9766,-1111.5717 499.3219,-1101.6272 495.9775,-1111.6803 502.9766,-1111.5717"/>
<text text-anchor="middle" x="520.6059" y="-1257" font-family="Times,serif" font-size="14.00" fill="#000000">z31/w0</text>
</g>
<!-- q13 -->
<g id="node11" class="node">
<title>q13</title>
<ellipse fill="none" stroke="#000000" cx="499" cy="-994.8" rx="27" ry="18"/>
<text text-anchor="middle" x="499" y="-990.6" font-family="Times,serif" font-size="14.00" fill="#000000">q13</text>
</g>
<!-- q5&#45;&gt;q13 -->
<g id="edge11" class="edge">
<title>q5-&gt;q13</title>
<path fill="none" stroke="#000000" d="M519.2203,-1425.8865C539.6369,-1410.4594 569,-1382.6045 569,-1350 569,-1350 569,-1350 569,-1083.6 569,-1054.9147 546.1931,-1030.0443 526.6156,-1013.9798"/>
<polygon fill="#000000" stroke="#000000" points="528.5366,-1011.0394 518.4989,-1007.6487 524.2313,-1016.5589 528.5366,-1011.0394"/>
<text text-anchor="middle" x="589.6059" y="-1212.6" font-family="Times,serif" font-size="14.00" fill="#000000">z32/w0</text>
</g>
<!-- q12&#45;&gt;q13 -->
<g id="edge22" class="edge">
<title>q12-&gt;q13</title>
<path fill="none" stroke="#000000" d="M499,-1065.2006C499,-1053.0949 499,-1037.0076 499,-1023.2674"/>
<polygon fill="#000000" stroke="#000000" points="502.5001,-1022.872 499,-1012.872 495.5001,-1022.8721 502.5001,-1022.872"/>
<text text-anchor="middle" x="519.6059" y="-1035" font-family="Times,serif" font-size="14.00" fill="#000000">z14/w0</text>
</g>
<!-- q13&#45;&gt;q14 -->
<g id="edge23" class="edge">
<title>q13-&gt;q14</title>
<path fill="none" stroke="#000000" d="M488.6549,-978.0974C480.5634,-965.0333 469.1727,-946.6425 459.9211,-931.7053"/>
<polygon fill="#000000" stroke="#000000" points="462.7268,-929.5881 454.4857,-922.9296 456.7758,-933.274 462.7268,-929.5881"/>
<text text-anchor="middle" x="496.6059" y="-946.2" font-family="Times,serif" font-size="14.00" fill="#000000">z15/w0</text>
</g>
<!-- q7&#45;&gt;q8 -->
<g id="edge16" class="edge">
<title>q7-&gt;q8</title>
<path fill="none" stroke="#000000" d="M265.3756,-1246.4952C258.452,-1239.9752 250.2103,-1232.2085 242.7882,-1225.2 231.9712,-1214.9858 219.9872,-1203.6466 209.9075,-1194.1029"/>
<polygon fill="#000000" stroke="#000000" points="212.2891,-1191.5379 202.6217,-1187.203 207.4758,-1196.6204 212.2891,-1191.5379"/>
<text text-anchor="middle" x="260.1059" y="-1212.6" font-family="Times,serif" font-size="14.00" fill="#000000">z6/w0</text>
</g>
<!-- q7&#45;&gt;q13 -->
<g id="edge18" class="edge">
<title>q7-&gt;q13</title>
<path fill="none" stroke="#000000" d="M283.5231,-1243.0401C288.2408,-1214.4207 300.5928,-1158.1242 328.7882,-1119.6 365.8963,-1068.898 429.6568,-1030.1272 467.7183,-1010.051"/>
<polygon fill="#000000" stroke="#000000" points="469.5318,-1013.0536 476.8094,-1005.3538 466.3186,-1006.8347 469.5318,-1013.0536"/>
<text text-anchor="middle" x="348.6059" y="-1123.8" font-family="Times,serif" font-size="14.00" fill="#000000">z27/w0</text>
</g>
<!-- q11 -->
<g id="node16" class="node">
<title>q11</title>
<ellipse fill="none" stroke="#000000" cx="380" cy="-1172.4" rx="27" ry="18"/>
<text text-anchor="middle" x="380" y="-1168.2" font-family="Times,serif" font-size="14.00" fill="#000000">q11</text>
</g>
<!-- q7&#45;&gt;q11 -->
<g id="edge17" class="edge">
<title>q7-&gt;q11</title>
<path fill="none" stroke="#000000" d="M296.7434,-1246.2224C308.0493,-1235.5504 323.7136,-1220.9345 337.7882,-1208.4 343.4255,-1203.3796 349.5676,-1198.0589 355.3769,-1193.0924"/>
<polygon fill="#000000" stroke="#000000" points="357.6613,-1195.7443 363.0139,-1186.6009 353.1277,-1190.4107 357.6613,-1195.7443"/>
<text text-anchor="middle" x="357.6059" y="-1212.6" font-family="Times,serif" font-size="14.00" fill="#000000">z26/w0</text>
</g>
<!-- q15 -->
<g id="node18" class="node">
<title>q15</title>
<ellipse fill="none" stroke="#000000" cx="402" cy="-817.2" rx="27" ry="18"/>
<text text-anchor="middle" x="402" y="-813" font-family="Times,serif" font-size="14.00" fill="#000000">q15</text>
</g>
<!-- q14&#45;&gt;q15 -->
<g id="edge24" class="edge">
<title>q14-&gt;q15</title>
<path fill="none" stroke="#000000" d="M435.7022,-888.456C429.6807,-875.725 421.4275,-858.2753 414.5955,-843.8306"/>
<polygon fill="#000000" stroke="#000000" points="417.5773,-841.9488 410.1377,-834.4054 411.2494,-844.9418 417.5773,-841.9488"/>
<text text-anchor="middle" x="446.6059" y="-857.4" font-family="Times,serif" font-size="14.00" fill="#000000">z16/w0</text>
</g>
<!-- q21&#45;&gt;q22 -->
<g id="edge31" class="edge">
<title>q21-&gt;q22</title>
<path fill="none" stroke="#000000" d="M289.2949,-266.856C283.7396,-254.2071 276.1386,-236.9002 269.8188,-222.5105"/>
<polygon fill="#000000" stroke="#000000" points="272.9149,-220.856 265.6891,-213.1076 266.5058,-223.6709 272.9149,-220.856"/>
<text text-anchor="middle" x="301.6059" y="-235.8" font-family="Times,serif" font-size="14.00" fill="#000000">z23/w0</text>
</g>
<!-- q23 -->
<g id="node24" class="node">
<title>q23</title>
<ellipse fill="none" stroke="#000000" cx="258" cy="-106.8" rx="27" ry="18"/>
<text text-anchor="middle" x="258" y="-102.6" font-family="Times,serif" font-size="14.00" fill="#000000">q23</text>
</g>
<!-- q22&#45;&gt;q23 -->
<g id="edge32" class="edge">
<title>q22-&gt;q23</title>
<path fill="none" stroke="#000000" d="M258,-177.2006C258,-165.0949 258,-149.0076 258,-135.2674"/>
<polygon fill="#000000" stroke="#000000" points="261.5001,-134.872 258,-124.872 254.5001,-134.8721 261.5001,-134.872"/>
<text text-anchor="middle" x="278.6059" y="-147" font-family="Times,serif" font-size="14.00" fill="#000000">z24/w0</text>
</g>
<!-- q11&#45;&gt;q12 -->
<g id="edge21" class="edge">
<title>q11-&gt;q12</title>
<path fill="none" stroke="#000000" d="M375.334,-1154.5431C373.5324,-1143.4227 373.4021,-1129.4163 380.7882,-1119.6 390.7545,-1106.3545 431.7625,-1095.9824 462.7049,-1089.841"/>
<polygon fill="#000000" stroke="#000000" points="463.587,-1093.2359 472.7532,-1087.9224 462.2742,-1086.3601 463.587,-1093.2359"/>
<text text-anchor="middle" x="400.6059" y="-1123.8" font-family="Times,serif" font-size="14.00" fill="#000000">z13/w0</text>
</g>
<!-- q10 -->
<g id="node17" class="node">
<title>q10</title>
<ellipse fill="none" stroke="#000000" cx="388" cy="-1261.2" rx="27" ry="18"/>
<text text-anchor="middle" x="388" y="-1257" font-family="Times,serif" font-size="14.00" fill="#000000">q10</text>
</g>
<!-- q10&#45;&gt;q11 -->
<g id="edge20" class="edge">
<title>q10-&gt;q11</title>
<path fill="none" stroke="#000000" d="M386.3811,-1243.23C385.2823,-1231.0338 383.8067,-1214.6543 382.5512,-1200.7187"/>
<polygon fill="#000000" stroke="#000000" points="386.0272,-1200.2937 381.644,-1190.6481 379.0554,-1200.9218 386.0272,-1200.2937"/>
<text text-anchor="middle" x="404.6059" y="-1212.6" font-family="Times,serif" font-size="14.00" fill="#000000">z12/w0</text>
</g>
<!-- q16 -->
<g id="node19" class="node">
<title>q16</title>
<ellipse fill="none" stroke="#000000" cx="321" cy="-728.4" rx="27" ry="18"/>
<text text-anchor="middle" x="321" y="-724.2" font-family="Times,serif" font-size="14.00" fill="#000000">q16</text>
</g>
<!-- q15&#45;&gt;q16 -->
<g id="edge25" class="edge">
<title>q15-&gt;q16</title>
<path fill="none" stroke="#000000" d="M387.8909,-801.7322C375.3079,-787.9375 356.705,-767.5432 342.3095,-751.7615"/>
<polygon fill="#000000" stroke="#000000" points="344.5442,-749.0179 335.2192,-743.9885 339.3725,-753.7353 344.5442,-749.0179"/>
<text text-anchor="middle" x="388.6059" y="-768.6" font-family="Times,serif" font-size="14.00" fill="#000000">z17/w0</text>
</g>
<!-- q17 -->
<g id="node20" class="node">
<title>q17</title>
<ellipse fill="none" stroke="#000000" cx="321" cy="-639.6" rx="27" ry="18"/>
<text text-anchor="middle" x="321" y="-635.4" font-family="Times,serif" font-size="14.00" fill="#000000">q17</text>
</g>
<!-- q16&#45;&gt;q17 -->
<g id="edge26" class="edge">
<title>q16-&gt;q17</title>
<path fill="none" stroke="#000000" d="M321,-710.0006C321,-697.8949 321,-681.8076 321,-668.0674"/>
<polygon fill="#000000" stroke="#000000" points="324.5001,-667.672 321,-657.672 317.5001,-667.6721 324.5001,-667.672"/>
<text text-anchor="middle" x="341.6059" y="-679.8" font-family="Times,serif" font-size="14.00" fill="#000000">z18/w0</text>
</g>
<!-- q18 -->
<g id="node21" class="node">
<title>q18</title>
<ellipse fill="none" stroke="#000000" cx="321" cy="-550.8" rx="27" ry="18"/>
<text text-anchor="middle" x="321" y="-546.6" font-family="Times,serif" font-size="14.00" fill="#000000">q18</text>
</g>
<!-- q17&#45;&gt;q18 -->
<g id="edge27" class="edge">
<title>q17-&gt;q18</title>
<path fill="none" stroke="#000000" d="M321,-621.2006C321,-609.0949 321,-593.0076 321,-579.2674"/>
<polygon fill="#000000" stroke="#000000" points="324.5001,-578.872 321,-568.872 317.5001,-578.8721 324.5001,-578.872"/>
<text text-anchor="middle" x="341.6059" y="-591" font-family="Times,serif" font-size="14.00" fill="#000000">z19/w0</text>
</g>
<!-- q19 -->
<g id="node22" class="node">
<title>q19</title>
<ellipse fill="none" stroke="#000000" cx="320" cy="-462" rx="27" ry="18"/>
<text text-anchor="middle" x="320" y="-457.8" font-family="Times,serif" font-size="14.00" fill="#000000">q19</text>
</g>
<!-- q18&#45;&gt;q19 -->
<g id="edge28" class="edge">
<title>q18-&gt;q19</title>
<path fill="none" stroke="#000000" d="M320.7928,-532.4006C320.6565,-520.2949 320.4753,-504.2076 320.3206,-490.4674"/>
<polygon fill="#000000" stroke="#000000" points="323.816,-490.0319 320.2035,-480.072 316.8164,-490.1108 323.816,-490.0319"/>
<text text-anchor="middle" x="340.6059" y="-502.2" font-family="Times,serif" font-size="14.00" fill="#000000">z20/w0</text>
</g>
<!-- q20 -->
<g id="node23" class="node">
<title>q20</title>
<ellipse fill="none" stroke="#000000" cx="317" cy="-373.2" rx="27" ry="18"/>
<text text-anchor="middle" x="317" y="-369" font-family="Times,serif" font-size="14.00" fill="#000000">q20</text>
</g>
<!-- q19&#45;&gt;q20 -->
<g id="edge29" class="edge">
<title>q19-&gt;q20</title>
<path fill="none" stroke="#000000" d="M319.3784,-443.6006C318.9694,-431.4949 318.4259,-415.4076 317.9617,-401.6674"/>
<polygon fill="#000000" stroke="#000000" points="321.4463,-401.1481 317.6105,-391.272 314.4503,-401.3845 321.4463,-401.1481"/>
<text text-anchor="middle" x="338.6059" y="-413.4" font-family="Times,serif" font-size="14.00" fill="#000000">z21/w0</text>
</g>
<!-- q20&#45;&gt;q21 -->
<g id="edge30" class="edge">
<title>q20-&gt;q21</title>
<path fill="none" stroke="#000000" d="M312.9527,-355.23C310.1876,-342.953 306.4678,-326.4372 303.3158,-312.4421"/>
<polygon fill="#000000" stroke="#000000" points="306.653,-311.3299 301.0413,-302.3433 299.8241,-312.868 306.653,-311.3299"/>
<text text-anchor="middle" x="329.6059" y="-324.6" font-family="Times,serif" font-size="14.00" fill="#000000">z22/w0</text>
</g>
<!-- q24 -->
<g id="node25" class="node">
<title>q24</title>
<ellipse fill="none" stroke="#000000" cx="258" cy="-18" rx="27" ry="18"/>
<text text-anchor="middle" x="258" y="-13.8" font-family="Times,serif" font-size="14.00" fill="#000000">q24</text>
</g>
<!-- q23&#45;&gt;q24 -->
<g id="edge33" class="edge">
<title>q23-&gt;q24</title>
<path fill="none" stroke="#000000" d="M258,-88.4006C258,-76.2949 258,-60.2076 258,-46.4674"/>
<polygon fill="#000000" stroke="#000000" points="261.5001,-46.072 258,-36.072 254.5001,-46.0721 261.5001,-46.072"/>
<text text-anchor="middle" x="278.6059" y="-58.2" font-family="Times,serif" font-size="14.00" fill="#000000">z25/w0</text>
</g>
</g>
</svg>