<?xml version="1.0" encoding="UTF-8" standalone="no"?><!DOCTYPE svg PUBLIC "-//W3C//DTD SVG 1.1//EN" "http://www.w3.org/Graphics/SVG/1.1/DTD/svg11.dtd"><!-- Generated by graphviz version 2.40.1 (20161225.0304)
 --><!-- Title: G Pages: 1 --><svg xmlns="http://www.w3.org/2000/svg" xmlns:xlink="http://www.w3.org/1999/xlink" width="220pt" height="666pt" viewBox="0.00 0.00 220.21 665.60">
<g id="graph0" class="graph" transform="scale(1 1) rotate(0) translate(4 661.6)">
<title>G</title>
<polygon fill="#ffffff" stroke="transparent" points="-4,4 -4,-661.6 216.2118,-661.6 216.2118,4 -4,4"/>
<!-- q0 -->
<g id="node1" class="node">
<title>q0</title>
<ellipse fill="none" stroke="#0000ff" cx="27" cy="-639.6" rx="27" ry="18"/>
<text text-anchor="middle" x="27" y="-635.4" font-family="Times,serif" font-size="14.00" fill="#000000">q0</text>
</g>
<!-- q1 -->
<g id="node2" class="node">
<title>q1</title>
<ellipse fill="none" stroke="#000000" cx="27" cy="-550.8" rx="27" ry="18"/>
<text text-anchor="middle" x="27" y="-546.6" font-family="Times,serif" font-size="14.00" fill="#000000">q1</text>
</g>
<!-- q0&#45;&gt;q1 -->
<g id="edge1" class="edge">
<title>q0-&gt;q1</title>
<path fill="none" stroke="#000000" d="M27,-621.2006C27,-609.0949 27,-593.0076 27,-579.2674"/>
<polygon fill="#000000" stroke="#000000" points="30.5001,-578.872 27,-568.872 23.5001,-578.8721 30.5001,-578.872"/>
<text text-anchor="middle" x="44.1059" y="-591" font-family="Times,serif" font-size="14.00" fill="#000000">z0/w0</text>
</g>
<!-- q2 -->
<g id="node3" class="node">
<title>q2</title>
<ellipse fill="none" stroke="#000000" cx="27" cy="-462" rx="27" ry="18"/>
<text text-anchor="middle" x="27" y="-457.8" font-family="Times,serif" font-size="14.00" fill="#000000">q2</text>
</g>
<!-- q1&#45;&gt;q2 -->
<g id="edge2" class="edge">
<title>q1-&gt;q2</title>
<path fill="none" stroke="#000000" d="M27,-532.4006C27,-520.2949 27,-504.2076 27,-490.4674"/>
<polygon fill="#000000" stroke="#000000" points="30.5001,-490.072 27,-480.072 23.5001,-490.0721 30.5001,-490.072"/>
<text text-anchor="middle" x="44.1059" y="-502.2" font-family="Times,serif" font-size="14.00" fill="#000000">z1/w0</text>
</g>
<!-- q3 -->
<g id="node4" class="node">
<title>q3</title>
<ellipse fill="none" stroke="#000000" cx="27" cy="-373.2" rx="27" ry="18"/>
<text text-anchor="middle" x="27" y="-369" font-family="Times,serif" font-size="14.00" fill="#000000">q3</text>
</g>
<!-- q2&#45;&gt;q3 -->
<g id="edge3" class="edge">
<title>q2-&gt;q3</title>
<path fill="none" stroke="#000000" d="M27,-443.6006C27,-431.4949 27,-415.4076 27,-401.6674"/>
<polygon fill="#000000" stroke="#000000" points="30.5001,-401.272 27,-391.272 23.5001,-401.2721 30.5001,-401.272"/>
<text text-anchor="middle" x="44.1059" y="-413.4" font-family="Times,serif" font-size="14.00" fill="#000000">z2/w0</text>
</g>
<!-- q4 -->
<g id="node5" class="node">
<title>q4</title>
<ellipse fill="none" stroke="#000000" cx="27" cy="-284.4" rx="27" ry="18"/>
<text text-anchor="middle" x="27" y="-280.2" font-family="Times,serif" font-size="14.00" fill="#000000">q4</text>
</g>
<!-- q3&#45;&gt;q4 -->
<g id="edge4" class="edge">
<title>q3-&gt;q4</title>
<path fill="none" stroke="#000000" d="M27,-354.8006C27,-342.6949 27,-326.6076 27,-312.8674"/>
<polygon fill="#000000" stroke="#000000" points="30.5001,-312.472 27,-302.472 23.5001,-312.4721 30.5001,-312.472"/>
<text text-anchor="middle" x="44.1059" y="-324.6" font-family="Times,serif" font-size="14.00" fill="#000000">z3/w0</text>
</g>
<!-- q5 -->
<g id="node6" class="node">
<title>q5</title>
<ellipse fill="none" stroke="#000000" cx="27" cy="-195.6" rx="27" ry="18"/>
<text text-anchor="middle" x="27" y="-191.4" font-family="Times,serif" font-size="14.00" fill="#000000">q5</text>
</g>
<!-- q4&#45;&gt;q5 -->
<g id="edge5" class="edge">
<title>q4-&gt;q5</title>
<path fill="none" stroke="#000000" d="M27,-266.0006C27,-253.8949 27,-237.8076 27,-224.0674"/>
<polygon fill="#000000" stroke="#000000" points="30.5001,-223.672 27,-213.672 23.5001,-223.6721 30.5001,-223.672"/>
<text text-anchor="middle" x="44.1059" y="-235.8" font-family="Times,serif" font-size="14.00" fill="#000000">z4/w0</text>
</g>
<!-- q6 -->
<g id="node7" class="node">
<title>q6</title>
<ellipse fill="none" stroke="#000000" cx="27" cy="-106.8" rx="27" ry="18"/>
<text text-anchor="middle" x="27" y="-102.6" font-family="Times,serif" font-size="14.00" fill="#000000">q6</text>
</g>
<!-- q5&#45;&gt;q6 -->
<g id="edge6" class="edge">
<title>q5-&gt;q6</title>
<path fill="none" stroke="#000000" d="M27,-177.2006C27,-165.0949 27,-149.0076 27,-135.2674"/>
<polygon fill="#000000" stroke="#000000" points="30.5001,-134.872 27,-124.872 23.5001,-134.8721 30.5001,-134.872"/>
<text text-anchor="middle" x="44.1059" y="-147" font-family="Times,serif" font-size="14.00" fill="#000000">z5/w0</text>
</g>
<!-- q7 -->
<g id="node8" class="node">
<title>q7</title>
<ellipse fill="none" stroke="#000000" cx="27" cy="-18" rx="27" ry="18"/>
<text text-anchor="middle" x="27" y="-13.8" font-family="Times,serif" font-size="14.00" fill="#000000">q7</text>
</g>
<!-- q6&#45;&gt;q7 -->
<g id="edge7" class="edge">
<title>q6-&gt;q7</title>
<path fill="none" stroke="#000000" d="M27,-88.4006C27,-76.2949 27,-60.2076 27,-46.4674"/>
<polygon fill="#000000" stroke="#000000" points="30.5001,-46.072 27,-36.072 23.5001,-46.0721 30.5001,-46.072"/>
<text text-anchor="middle" x="44.1059" y="-58.2" font-family="Times,serif" font-size="14.00" fill="#000000">z6/w0</text>
</g>
<!-- q8 -->
<g id="node9" class="node">
<title>q8</title>
<ellipse fill="none" stroke="#000000" cx="99" cy="-639.6" rx="27" ry="18"/>
<text text-anchor="middle" x="99" y="-635.4" font-family="Times,serif" font-size="14.00" fill="#000000">q8</text>
</g>
<!-- q9 -->
<g id="node10" class="node">
<title>q9</title>
<ellipse fill="none" stroke="#000000" cx="99" cy="-550.8" rx="27" ry="18"/>
<text text-anchor="middle" x="99" y="-546.6" font-family="Times,serif" font-size="14.00" fill="#000000">q9</text>
</g>
<!-- q8&#45;&gt;q9 -->
<g id="edge8" class="edge">
<title>q8-&gt;q9</title>
<path fill="none" stroke="#000000" d="M99,-621.2006C99,-609.0949 99,-593.0076 99,-579.2674"/>
<polygon fill="#000000" stroke="#000000" points="102.5001,-578.872 99,-568.872 95.5001,-578.8721 102.5001,-578.872"/>
<text text-anchor="middle" x="116.1059" y="-591" font-family="Times,serif" font-size="14.00" fill="#000000">z7/w0</text>
</g>
<!-- q10 -->
<g id="node11" class="node">
<title>q10</title>
<ellipse fill="none" stroke="#000000" cx="99" cy="-462" rx="27" ry="18"/>
<text text-anchor="middle" x="99" y="-457.8" font-family="Times,serif" font-size="14.00" fill="#000000">q10</text>
</g>
<!-- q9&#45;&gt;q10 -->
<g id="edge9" class="edge">
<title>q9-&gt;q10</title>
<path fill="none" stroke="#000000" d="M99,-532.4006C99,-520.2949 99,-504.2076 99,-490.4674"/>
<polygon fill="#000000" stroke="#000000" points="102.5001,-490.072 99,-480.072 95.5001,-490.0721 102.5001,-490.072"/>
<text text-anchor="middle" x="116.1059" y="-502.2" font-family="Times,serif" font-size="14.00" fill="#000000">z8/w0</text>
</g>
<!-- q11 -->
<g id="node12" class="node">
<title>q11</title>
<ellipse fill="none" stroke="#000000" cx="99" cy="-373.2" rx="27" ry="18"/>
<text text-anchor="middle" x="99" y="-369" font-family="Times,serif" font-size="14.00" fill="#000000">q11</text>
</g>
<!-- q10&#45;&gt;q11 -->
<g id="edge10" class="edge">
<title>q10-&gt;q11</title>
<path fill="none" stroke="#000000" d="M99,-443.6006C99,-431.4949 99,-415.4076 99,-401.6674"/>
<polygon fill="#000000" stroke="#000000" points="102.5001,-401.272 99,-391.272 95.5001,-401.2721 102.5001,-401.272"/>
<text text-anchor="middle" x="116.1059" y="-413.4" font-family="Times,serif" font-size="14.00" fill="#000000">z9/w0</text>
</g>
<!-- q12 -->
<g id="node13" class="node">
<title>q12</title>
<ellipse fill="none" stroke="#000000" cx="99" cy="-284.4" rx="27" ry="18"/>
<text text-anchor="middle" x="99" y="-280.2" font-family="Times,serif" font-size="14.00" fill="#000000">q12</text>
</g>
<!-- q11&#45;&gt;q12 -->
<g id="edge11" class="edge">
<title>q11-&gt;q12</title>
<path fill="none" stroke="#000000" d="M99,-354.8006C99,-342.6949 99,-326.6076 99,-312.8674"/>
<polygon fill="#000000" stroke="#000000" points="102.5001,-312.472 99,-302.472 95.5001,-312.4721 102.5001,-312.472"/>
<text text-anchor="middle" x="119.6059" y="-324.6" font-family="Times,serif" font-size="14.00" fill="#000000">z10/w0</text>
</g>
<!-- q13 -->
<g id="node14" class="node">
<title>q13</title>
<ellipse fill="none" stroke="#000000" cx="99" cy="-195.6" rx="27" ry="18"/>
<text text-anchor="middle" x="99" y="-191.4" font-family="Times,serif" font-size="14.00" fill="#000000">q13</text>
</g>
<!-- q12&#45;&gt;q13 -->
<g id="edge12" class="edge">
<title>q12-&gt;q13</title>
<path fill="none" stroke="#000000" d="M99,-266.0006C99,-253.8949 99,-237.8076 99,-224.0674"/>
<polygon fill="#000000" stroke="#000000" points="102.5001,-223.672 99,-213.672 95.5001,-223.6721 102.5001,-223.672"/>
<text text-anchor="middle" x="119.6059" y="-235.8" font-family="Times,serif" font-size="14.00" fill="#000000">z11/w0</text>
</g>
<!-- q14 -->
<g id="node15" class="node">
<title>q14</title>
<ellipse fill="none" stroke="#000000" cx="171" cy="-639.6" rx="27" ry="18"/>
<text text-anchor="middle" x="171" y="-635.4" font-family="Times,serif" font-size="14.00" fill="#000000">q14</text>
</g>
<!-- q15 -->
<g id="node16" class="node">
<title>q15</title>
<ellipse fill="none" stroke="#000000" cx="171" cy="-550.8" rx="27" ry="18"/>
<text text-anchor="middle" x="171" y="-546.6" font-family="Times,serif" font-size="14.00" fill="#000000">q15</text>
</g>
<!-- q14&#45;&gt;q15 -->
<g id="edge13" class="edge">
<title>q14-&gt;q15</title>
<path fill="none" stroke="#000000" d="M171,-621.2006C171,-609.0949 171,-593.0076 171,-579.2674"/>
<polygon fill="#000000" stroke="#000000" points="174.5001,-578.872 171,-568.872 167.5001,-578.8721 174.5001,-578.872"/>
<text text-anchor="middle" x="191.6059" y="-591" font-family="Times,serif" font-size="14.00" fill="#000000">z12/w0</text>
</g>
<!-- q16 -->
<g id="node17" class="node">
<title>q16</title>
<ellipse fill="none" stroke="#000000" cx="171" cy="-462" rx="27" ry="18"/>
<text text-anchor="middle" x="171" y="-457.8" font-family="Times,serif" font-size="14.00" fill="#000000">q16</text>
</g>
<!-- q15&#45;&gt;q16 -->
<g id="edge14" class="edge">
<title>q15-&gt;q16</title>
<path fill="none" stroke="#000000" d="M171,-532.4006C171,-520.2949 171,-504.2076 171,-490.4674"/>
<polygon fill="#000000" stroke="#000000" points="174.5001,-490.072 171,-480.072 167.5001,-490.0721 174.5001,-490.072"/>
<text text-anchor="middle" x="191.6059" y="-502.2" font-family="Times,serif" font-size="14.00" fill="#000000">z13/w0</text>
</g>
<!-- q17 -->
<g id="node18" class="node">
<title>q17</title>
<ellipse fill="none" stroke="#000000" cx="171" cy="-373.2" rx="27" ry="18"/>
<text text-anchor="middle" x="171" y="-369" font-family="Times,serif" font-size="14.00" fill="#000000">q17</text>
</g>
<!-- q16&#45;&gt;q17 -->
<g id="edge15" class="edge">
<title>q16-&gt;q17</title>
<path fill="none" stroke="#000000" d="M171,-443.6006C171,-431.4949 171,-415.4076 171,-401.6674"/>
<polygon fill="#000000" stroke="#000000" points="174.5001,-401.272 171,-391.272 167.5001,-401.2721 174.5001,-401.272"/>
<text text-anchor="middle" x="191.6059" y="-413.4" font-family="Times,serif" font-size="14.00" fill="#000000">z14/w0</text>
</g>
<!-- q18 -->
<g id="node19" class="node">
<title>q18</title>
<ellipse fill="none" stroke="#000000" cx="171" cy="-284.4" rx="27" ry="18"/>
<text text-anchor="middle" x="171" y="-280.2" font-family="Times,serif" font-size="14.00" fill="#000000">q18</text>
</g>
<!-- q17&#45;&gt;q18 -->
<g id="edge16" class="edge">
<title>q17-&gt;q18</title>
<path fill="none" stroke="#000000" d="M171,-354.8006C171,-342.6949 171,-326.6076 171,-312.8674"/>
<polygon fill="#000000" stroke="#000000" points="174.5001,-312.472 171,-302.472 167.5001,-312.4721 174.5001,-312.472"/>
<text text-anchor="middle" x="191.6059" y="-324.6" font-family="Times,serif" font-size="14.00" fill="#000000">z15/w0</text>
</g>
</g>
</svg>