<?xml version="1.0" encoding="UTF-8" standalone="no"?><!DOCTYPE svg PUBLIC "-//W3C//DTD SVG 1.1//EN" "http://www.w3.org/Graphics/SVG/1.1/DTD/svg11.dtd"><!-- Generated by graphviz version 2.40.1 (20161225.0304)
 --><!-- Title: G Pages: 1 --><svg xmlns="http://www.w3.org/2000/svg" xmlns:xlink="http://www.w3.org/1999/xlink" width="399pt" height="399pt" viewBox="0.00 0.00 399.21 399.20">
<g id="graph0" class="graph" transform="scale(1 1) rotate(0) translate(4 395.2)">
<title>G</title>
<polygon fill="#ffffff" stroke="transparent" points="-4,4 -4,-395.2 395.2118,-395.2 395.2118,4 -4,4"/>
<!-- q0 -->
<g id="node1" class="node">
<title>q0</title>
<ellipse fill="none" stroke="#0000ff" cx="194" cy="-373.2" rx="27" ry="18"/>
<text text-anchor="middle" x="194" y="-369" font-family="Times,serif" font-size="14.00" fill="#000000">q0</text>
</g>
<!-- q1 -->
<g id="node2" class="node">
<title>q1</title>
<ellipse fill="none" stroke="#000000" cx="119" cy="-284.4" rx="27" ry="18"/>
<text text-anchor="middle" x="119" y="-280.2" font-family="Times,serif" font-size="14.00" fill="#000000">q1</text>
</g>
<!-- q0&#45;&gt;q1 -->
<g id="edge1" class="edge">
<title>q0-&gt;q1</title>
<path fill="none" stroke="#000000" d="M167.4544,-368.9661C148.9572,-364.4818 125.5659,-355.3956 113.7882,-337.2 108.9675,-329.7525 108.5118,-320.4354 109.819,-311.7096"/>
<polygon fill="#000000" stroke="#000000" points="113.2494,-312.4071 112.0075,-301.8853 106.4168,-310.885 113.2494,-312.4071"/>
<text text-anchor="middle" x="130.1059" y="-324.6" font-family="Times,serif" font-size="14.00" fill="#000000">z0/w0</text>
</g>
<!-- q2 -->
<g id="node3" class="node">
<title>q2</title>
<ellipse fill="none" stroke="#000000" cx="165" cy="-18" rx="27" ry="18"/>
<text text-anchor="middle" x="165" y="-13.8" font-family="Times,serif" font-size="14.00" fill="#000000">q2</text>
</g>
<!-- q0&#45;&gt;q2 -->
<g id="edge2" class="edge">
<title>q0-&gt;q2</title>
<path fill="none" stroke="#000000" d="M168.2383,-367.1383C115.4665,-353.9701 0,-320.9782 0,-284.4 0,-284.4 0,-284.4 0,-106.8 0,-49.065 79.3032,-28.7025 127.9523,-21.6429"/>
<polygon fill="#000000" stroke="#000000" points="128.6696,-25.0785 138.1227,-20.2942 127.7493,-18.1392 128.6696,-25.0785"/>
<text text-anchor="middle" x="17.1059" y="-191.4" font-family="Times,serif" font-size="14.00" fill="#000000">z4/w0</text>
</g>
<!-- q4 -->
<g id="node4" class="node">
<title>q4</title>
<ellipse fill="none" stroke="#000000" cx="242" cy="-195.6" rx="27" ry="18"/>
<text text-anchor="middle" x="242" y="-191.4" font-family="Times,serif" font-size="14.00" fill="#000000">q4</text>
</g>
<!-- q0&#45;&gt;q4 -->
<g id="edge3" class="edge">
<title>q0-&gt;q4</title>
<path fill="none" stroke="#000000" d="M198.8666,-355.1934C207.2617,-324.1317 224.52,-260.2762 234.4734,-223.4486"/>
<polygon fill="#000000" stroke="#000000" points="237.9614,-223.9571 237.1918,-213.3902 231.2039,-222.1306 237.9614,-223.9571"/>
<text text-anchor="middle" x="239.1059" y="-280.2" font-family="Times,serif" font-size="14.00" fill="#000000">z5/w0</text>
</g>
<!-- q1&#45;&gt;q0 -->
<g id="edge5" class="edge">
<title>q1-&gt;q0</title>
<path fill="none" stroke="#000000" d="M132.2924,-300.1382C143.8817,-313.8599 160.858,-333.9599 174.0725,-349.6059"/>
<polygon fill="#000000" stroke="#000000" points="171.4651,-351.943 180.5915,-357.3243 176.8129,-347.4262 171.4651,-351.943"/>
<text text-anchor="middle" x="180.1059" y="-324.6" font-family="Times,serif" font-size="14.00" fill="#000000">z6/w0</text>
</g>
<!-- q1&#45;&gt;q2 -->
<g id="edge4" class="edge">
<title>q1-&gt;q2</title>
<path fill="none" stroke="#000000" d="M105.6204,-268.3639C85.8033,-242.655 52.0788,-190.2742 62.7882,-142.8 72.4043,-100.1724 75.6295,-86.3567 105,-54 112.8139,-45.3917 123.1709,-38.1884 133.0775,-32.5427"/>
<polygon fill="#000000" stroke="#000000" points="134.789,-35.5966 141.9629,-27.8001 131.4928,-29.4212 134.789,-35.5966"/>
<text text-anchor="middle" x="80.1059" y="-147" font-family="Times,serif" font-size="14.00" fill="#000000">z1/w0</text>
</g>
<!-- q1&#45;&gt;q4 -->
<g id="edge6" class="edge">
<title>q1-&gt;q4</title>
<path fill="none" stroke="#000000" d="M132.3267,-268.239C142.1515,-257.0093 156.2797,-242.2132 170.7882,-231.6 182.6382,-222.9315 196.8819,-215.2702 209.5062,-209.268"/>
<polygon fill="#000000" stroke="#000000" points="211.1497,-212.3647 218.778,-205.0122 208.2296,-206.0029 211.1497,-212.3647"/>
<text text-anchor="middle" x="187.1059" y="-235.8" font-family="Times,serif" font-size="14.00" fill="#000000">z7/w0</text>
</g>
<!-- q2&#45;&gt;q1 -->
<g id="edge8" class="edge">
<title>q2-&gt;q1</title>
<path fill="none" stroke="#000000" d="M157.8466,-35.7373C155.7286,-41.4917 153.5612,-47.9519 152,-54 133.565,-125.4166 124.642,-212.1237 121.0388,-256.0094"/>
<polygon fill="#000000" stroke="#000000" points="117.5315,-255.9646 120.2348,-266.2088 124.5099,-256.5148 117.5315,-255.9646"/>
<text text-anchor="middle" x="151.1059" y="-147" font-family="Times,serif" font-size="14.00" fill="#000000">z8/w0</text>
</g>
<!-- q2&#45;&gt;q4 -->
<g id="edge9" class="edge">
<title>q2-&gt;q4</title>
<path fill="none" stroke="#000000" d="M177.0859,-34.1433C187.0309,-48.0379 200.9197,-68.93 210,-88.8 221.7535,-114.5197 230.5136,-145.666 235.8691,-167.669"/>
<polygon fill="#000000" stroke="#000000" points="232.5253,-168.7397 238.2228,-177.6722 239.3393,-167.1363 232.5253,-168.7397"/>
<text text-anchor="middle" x="240.1059" y="-102.6" font-family="Times,serif" font-size="14.00" fill="#000000">z9/w0</text>
</g>
<!-- q3 -->
<g id="node5" class="node">
<title>q3</title>
<ellipse fill="none" stroke="#000000" cx="339" cy="-106.8" rx="27" ry="18"/>
<text text-anchor="middle" x="339" y="-102.6" font-family="Times,serif" font-size="14.00" fill="#000000">q3</text>
</g>
<!-- q2&#45;&gt;q3 -->
<g id="edge7" class="edge">
<title>q2-&gt;q3</title>
<path fill="none" stroke="#000000" d="M191.6785,-21.3674C230.0572,-26.6927 298.2966,-38.109 317,-54 324.614,-60.4691 329.6412,-70.0085 332.939,-79.2058"/>
<polygon fill="#000000" stroke="#000000" points="329.625,-80.3382 335.8792,-88.8901 336.3231,-78.3046 329.625,-80.3382"/>
<text text-anchor="middle" x="345.1059" y="-58.2" font-family="Times,serif" font-size="14.00" fill="#000000">z2/w0</text>
</g>
<!-- q4&#45;&gt;q0 -->
<g id="edge13" class="edge">
<title>q4-&gt;q0</title>
<path fill="none" stroke="#000000" d="M250.3699,-212.8305C259.6515,-234.4409 271.8507,-272.308 260,-302.4 251.9992,-322.7162 235.117,-340.6486 220.4305,-353.3831"/>
<polygon fill="#000000" stroke="#000000" points="218.0298,-350.8269 212.5675,-359.9051 222.4989,-356.2147 218.0298,-350.8269"/>
<text text-anchor="middle" x="284.6059" y="-280.2" font-family="Times,serif" font-size="14.00" fill="#000000">z12/w0</text>
</g>
<!-- q4&#45;&gt;q2 -->
<g id="edge14" class="edge">
<title>q4-&gt;q2</title>
<path fill="none" stroke="#000000" d="M221.4471,-183.7514C202.7197,-171.6447 176.2837,-150.9377 164.7882,-124.8 153.8186,-99.8581 155.5126,-68.3589 158.9463,-46.0494"/>
<polygon fill="#000000" stroke="#000000" points="162.4453,-46.3587 160.7237,-35.9046 155.5504,-45.1505 162.4453,-46.3587"/>
<text text-anchor="middle" x="184.6059" y="-102.6" font-family="Times,serif" font-size="14.00" fill="#000000">z13/w0</text>
</g>
<!-- q4&#45;&gt;q3 -->
<g id="edge15" class="edge">
<title>q4-&gt;q3</title>
<path fill="none" stroke="#000000" d="M248.9789,-177.7747C254.0179,-166.6668 261.7069,-152.6627 271.7882,-142.8 281.4942,-133.3044 294.2133,-125.6385 305.9723,-119.8605"/>
<polygon fill="#000000" stroke="#000000" points="307.5119,-123.0047 315.1212,-115.6325 304.5753,-116.6505 307.5119,-123.0047"/>
<text text-anchor="middle" x="291.6059" y="-147" font-family="Times,serif" font-size="14.00" fill="#000000">z14/w0</text>
</g>
<!-- q3&#45;&gt;q0 -->
<g id="edge11" class="edge">
<title>q3-&gt;q0</title>
<path fill="none" stroke="#000000" d="M353.821,-122.0018C358.6819,-127.9895 363.4801,-135.2402 366,-142.8 368.3612,-149.8835 367.4093,-152.2675 366,-159.6 353.1015,-226.7076 351.9905,-249.2811 309,-302.4 287.289,-329.226 252.5254,-348.6098 226.897,-360.241"/>
<polygon fill="#000000" stroke="#000000" points="225.3294,-357.1063 217.5682,-364.3184 228.1329,-363.5204 225.3294,-357.1063"/>
<text text-anchor="middle" x="370.6059" y="-235.8" font-family="Times,serif" font-size="14.00" fill="#000000">z10/w0</text>
</g>
<!-- q3&#45;&gt;q2 -->
<g id="edge12" class="edge">
<title>q3-&gt;q2</title>
<path fill="none" stroke="#000000" d="M316.7367,-96.5447C303.2617,-89.9371 285.9948,-80.7433 271.7882,-70.8 262.611,-64.3768 262.4969,-59.9403 253,-54 236.271,-43.5361 215.9775,-34.9949 199.096,-28.8624"/>
<polygon fill="#000000" stroke="#000000" points="200.1983,-25.5401 189.6035,-25.5337 197.8819,-32.1457 200.1983,-25.5401"/>
<text text-anchor="middle" x="291.6059" y="-58.2" font-family="Times,serif" font-size="14.00" fill="#000000">z11/w0</text>
</g>
<!-- q3&#45;&gt;q4 -->
<g id="edge10" class="edge">
<title>q3-&gt;q4</title>
<path fill="none" stroke="#000000" d="M335.0126,-124.7674C331.7565,-135.9318 326.1581,-149.9458 317,-159.6 306.0162,-171.1788 290.541,-179.4691 276.4982,-185.1525"/>
<polygon fill="#000000" stroke="#000000" points="275.216,-181.8953 267.0778,-188.6791 277.6702,-188.4509 275.216,-181.8953"/>
<text text-anchor="middle" x="345.1059" y="-147" font-family="Times,serif" font-size="14.00" fill="#000000">z3/w0</text>
</g>
</g>
</svg>