<?xml version="1.0" encoding="UTF-8" standalone="no"?><!DOCTYPE svg PUBLIC "-//W3C//DTD SVG 1.1//EN" "http://www.w3.org/Graphics/SVG/1.1/DTD/svg11.dtd"><!-- Generated by graphviz version 2.40.1 (20161225.0304)
 --><!-- Title: G Pages: 1 --><svg xmlns="http://www.w3.org/2000/svg" xmlns:xlink="http://www.w3.org/1999/xlink" width="186pt" height="222pt" viewBox="0.00 0.00 186.00 221.60">
<g id="graph0" class="graph" transform="scale(1 1) rotate(0) translate(4 217.6)">
<title>G</title>
<polygon fill="#ffffff" stroke="transparent" points="-4,4 -4,-217.6 182,-217.6 182,4 -4,4"/>
<!-- q2 -->
<g id="node1" class="node">
<title>q2</title>
<ellipse fill="none" stroke="#0000ff" cx="27" cy="-106.8" rx="27" ry="18"/>
<text text-anchor="middle" x="27" y="-102.6" font-family="Times,serif" font-size="14.00" fill="#000000">q2</text>
</g>
<!-- q2&#45;&gt;q2 -->
<g id="edge4" class="edge">
<title>q2-&gt;q2</title>
<path fill="none" stroke="#000000" d="M51.5325,-114.9211C62.5078,-115.6945 72,-112.9875 72,-106.8 72,-102.6428 67.7151,-100.0567 61.5743,-99.0417"/>
<polygon fill="#000000" stroke="#000000" points="61.6524,-95.5424 51.5325,-98.6789 61.3995,-102.5378 61.6524,-95.5424"/>
<text text-anchor="middle" x="89.1059" y="-102.6" font-family="Times,serif" font-size="14.00" fill="#000000">z4/w1</text>
</g>
<!-- end -->
<g id="node4" class="node">
<title>end</title>
<ellipse fill="none" stroke="#000000" cx="27" cy="-18" rx="27" ry="18"/>
<text text-anchor="middle" x="27" y="-13.8" font-family="Times,serif" font-size="14.00" fill="#000000">end</text>
</g>
<!-- q2&#45;&gt;end -->
<g id="edge3" class="edge">
<title>q2-&gt;end</title>
<path fill="none" stroke="#000000" d="M27,-88.4006C27,-76.2949 27,-60.2076 27,-46.4674"/>
<polygon fill="#000000" stroke="#000000" points="30.5001,-46.072 27,-36.072 23.5001,-46.0721 30.5001,-46.072"/>
<text text-anchor="middle" x="44.1059" y="-58.2" font-family="Times,serif" font-size="14.00" fill="#000000">z3/w2</text>
</g>
<!-- q1 -->
<g id="node2" class="node">
<title>q1</title>
<ellipse fill="none" stroke="#000000" cx="105" cy="-195.6" rx="27" ry="18"/>
<text text-anchor="middle" x="105" y="-191.4" font-family="Times,serif" font-size="14.00" fill="#000000">q1</text>
</g>
<!-- q1&#45;&gt;q2 -->
<g id="edge2" class="edge">
<title>q1-&gt;q2</title>
<path fill="none" stroke="#000000" d="M91.0552,-179.7243C78.9651,-165.9603 61.3042,-145.854 47.5873,-130.2378"/>
<polygon fill="#000000" stroke="#000000" points="50.0532,-127.7416 40.8241,-122.5382 44.7939,-132.3612 50.0532,-127.7416"/>
<text text-anchor="middle" x="90.1059" y="-147" font-family="Times,serif" font-size="14.00" fill="#000000">z2/w2</text>
</g>
<!-- q3 -->
<g id="node3" class="node">
<title>q3</title>
<ellipse fill="none" stroke="#000000" cx="151" cy="-106.8" rx="27" ry="18"/>
<text text-anchor="middle" x="151" y="-102.6" font-family="Times,serif" font-size="14.00" fill="#000000">q3</text>
</g>
<!-- q1&#45;&gt;q3 -->
<g id="edge1" class="edge">
<title>q1-&gt;q3</title>
<path fill="none" stroke="#000000" d="M113.8693,-178.4785C120.5512,-165.5795 129.8309,-147.6655 137.4417,-132.9734"/>
<polygon fill="#000000" stroke="#000000" points="140.666,-134.3582 142.158,-123.869 134.4505,-131.1384 140.666,-134.3582"/>
<text text-anchor="middle" x="149.1059" y="-147" font-family="Times,serif" font-size="14.00" fill="#000000">z1/w2</text>
</g>
<!-- end&#45;&gt;end -->
<g id="edge5" class="edge">
<title>end-&gt;end</title>
<path fill="none" stroke="#000000" d="M51.5325,-26.1211C62.5078,-26.8945 72,-24.1875 72,-18 72,-13.8428 67.7151,-11.2567 61.5743,-10.2417"/>
<polygon fill="#000000" stroke="#000000" points="61.6524,-6.7424 51.5325,-9.8789 61.3995,-13.7378 61.6524,-6.7424"/>
<text text-anchor="middle" x="89.1059" y="-13.8" font-family="Times,serif" font-size="14.00" fill="#000000">z5/w0</text>
</g>
</g>
</svg>